<svg version="1.1" xmlns="http://www.w3.org/2000/svg" viewBox="0 0 521.7718505859375 342.8436737060547" width="1043.543701171875" height="685.6873474121094">
  <!-- svg-source:excalidraw -->
  
  <defs>
    <style>
      @font-face {
        font-family: "Virgil";
        src: url("https://excalidraw.com/FG_Virgil.woff2");
      }
      @font-face {
        font-family: "Cascadia";
        src: url("https://excalidraw.com/Cascadia.woff2");
      }
    </style>
  </defs>
  <rect x="0" y="0" width="521.7718505859375" height="342.8436737060547" fill="#ffffff"></rect><g transform="translate(238.03656005859375 172.74778747558594) rotate(0 26 12.5)"><text x="0" y="18" font-family="Virgil, Segoe UI Emoji" font-size="20px" fill="#000000" text-anchor="start" style="white-space: pre;" direction="ltr">torch</text></g><g transform="translate(212.4005126953125 144.82838439941406) rotate(0 51.0213623046875 40.259490966796875)"><path d="M63.73673293026267 1.3738329966544995 C72.64213378724023 2.4722624548191297, 83.01319559090875 6.901380023327294, 89.13401465695655 12.272906240586153 C95.25483372300435 17.64443245784501, 98.95646612742186 26.397401025841372, 100.46164732654945 33.60299030020765 C101.96682852567704 40.808579574573926, 101.65296023243044 48.657555937654124, 98.16510185172208 55.50644188678382 C94.67724347101372 62.35532783591351, 87.46061957155793 70.42382645755484, 79.53449704229928 74.69630599498583 C71.60837451304063 78.96878553241683, 59.9601402705444 81.39358274623682, 50.6083666761702 81.1413191113698 C41.256593081796 80.88905547650278, 31.311930595243155 77.29628218825327, 23.42385547605406 73.18272418578368 C15.535780356864969 69.0691661833141, 7.016558281324581 63.254877058386064, 3.279915961035641 56.45997109655224 C-0.4567263592532993 49.66506513471841, -0.651279767461941 39.72358874320166, 1.0040015543204177 32.41328841478073 C2.6592828761027762 25.102988086359797, 6.841914056350728 17.760928673474524, 13.211603891729794 12.59816912602664 C19.58129372710886 7.435409578578756, 29.247121779249163 2.9326684198237993, 39.22214056659482 1.4367311300934276 C49.19715935394047 -0.05920615963694442, 66.1241066580754 2.278296793873115, 73.0617166158037 3.622545387644408 C79.999326573532 4.966793981415701, 81.15684127525812 8.942181937695333, 80.84780031296462 9.502222692721187 M30.420048009327868 3.4811928315850125 C38.391996490472884 0.4404958312958147, 51.569078513069584 0.3684104309731566, 60.90765404712803 1.4869041500968478 C70.24622958118647 2.605397869220539, 79.55578887193346 5.265908761692491, 86.45150121367851 10.19215514632716 C93.34721355542356 15.11840153096183, 100.38058340499515 23.861448553636464, 102.28192809759832 31.04438245790486 C104.1832727902015 38.227316362173255, 101.36920257545098 46.535449426838255, 97.85956936929753 53.289758571937526 C94.34993616314408 60.044067717036796, 88.85395986442865 66.89815397049486, 81.22412886067758 71.57023732850048 C73.59429785692652 76.2423206865061, 61.33423595762355 80.72325797660133, 52.08058334679117 81.32225871997122 C42.8269307359588 81.9212594633411, 33.33526759814495 79.1133233841285, 25.70221319568331 75.16424178871975 C18.069158793221664 71.215160193311, 10.447452788212583 64.16066683029052, 6.282256932021305 57.627769147518705 C2.1170610758300272 51.094871464746895, -0.5385644114291495 43.1970917385858, 0.7110380585356424 35.966855692088885 C1.9606405285004342 28.736619645591972, 8.514761350094318 19.952984573343034, 13.779871751810056 14.24635286853723 C19.044982153525794 8.539721163731425, 29.479486774292305 3.382911054185212, 32.30170046883008 1.727065463254064 C35.12391416336785 0.07121987232291604, 30.431424764347508 3.700987540714332, 30.713153919036696 4.311279322950341" stroke="#000000" stroke-width="1" fill="none"></path></g><g transform="translate(10 39.21949768066406) rotate(0 71.24940490722656 29.677001953125)"><path d="M1.238383574411273 -1.9864795934408903 C38.452002139456965 -0.362053004831437, 81.37269582352121 2.40890535917842, 141.1857805084437 -1.2376303803175688 M0.07502239290624857 -0.5940720224753022 C30.499515387432986 -1.4691738391632405, 62.68211938202076 0.1377657448535594, 141.8613646859303 -0.11379892472177744 M141.7420973610133 0.7331600058823824 C140.33639147781057 22.896405153994284, 140.9306779792182 44.326482653790755, 143.3184749316424 57.408875750377774 M142.0292321080342 -0.9854665482416749 C142.6306456473862 13.48730394733152, 141.17348872099268 27.06925775436712, 141.51637338940054 60.1653301930055 M143.0048729609698 59.52814941294491 C104.60743610134674 58.241708480743384, 70.2553311966797 60.63377203884504, -0.8052107263356447 59.027032958343625 M142.19232034031302 58.80059768911451 C94.68191927889256 59.58625683563167, 45.76928986206441 58.0435630120557, 0.5876885885372758 59.669861189089715 M1.0508192609995604 59.45055161602795 C0.6873019885764962 36.22098908452695, 2.2087621044860724 16.38289269377301, 0.9594989251345396 -0.02738483063876629 M0.3886584276333451 60.28496419545263 C0.5962995693065158 47.02748901918808, -0.28760944754109463 35.66746619735468, 0.5389028126373887 -0.6223311806097627" stroke="#000000" stroke-width="1" fill="none"></path></g><g transform="translate(41.908203125 56.59861755371094) rotate(0 37 12.5)"><text x="0" y="18" font-family="Virgil, Segoe UI Emoji" font-size="20px" fill="#000000" text-anchor="start" style="white-space: pre;" direction="ltr">tensors</text></g><g transform="translate(202.966796875 10) rotate(0 64.64358520507812 30.68682861328125)"><path d="M0.37488393671810627 0.022509319707751274 C40.6458185213994 0.5237884820056257, 85.62920313354651 -0.6483205854344073, 127.8426853287965 1.2606376837939024 M0.40375401731580496 -0.3898301487788558 C40.85705091134219 0.513545861144616, 81.50873399769036 -0.2498053706688148, 128.37226831074804 0.7607594663277268 M130.24240027554333 1.900832099840045 C128.12701223915826 23.169632486395166, 129.85756723707925 45.00842303103134, 129.80949251540005 62.38399945013225 M128.2873591100797 0.10873400513082743 C129.65992783275965 12.211894989156429, 128.17749573556307 26.711045391211815, 129.8266656016931 61.346047901548445 M130.34499542601407 59.644997699186206 C99.81141694719177 62.72575782980125, 71.8375785348978 61.84361534561317, -0.646031154319644 60.803807063028216 M129.07535167690367 60.67158439103514 C85.81244706166513 59.80536659944855, 41.5186195567171 59.953398042806015, -0.7089893305674195 61.74968140665442 M-0.3502285610884428 59.490784926339984 C0.12107302864622738 47.21119472660281, 0.18818732222151424 34.22266402088419, -1.2617396842688322 -1.4362993407994509 M-0.138182588852942 61.161910706199706 C0.818103528693897 42.4850637495247, 0.7335844106232946 23.039960605410734, 0.12025346513837576 0.7550156945362687" stroke="#000000" stroke-width="1" fill="none"></path></g><g transform="translate(214.26019287109375 14.30792236328125) rotate(0 56.5 25)"><text x="0" y="18" font-family="Virgil, Segoe UI Emoji" font-size="20px" fill="#000000" text-anchor="start" style="white-space: pre;" direction="ltr">array</text><text x="0" y="43" font-family="Virgil, Segoe UI Emoji" font-size="20px" fill="#000000" text-anchor="start" style="white-space: pre;" direction="ltr">computation</text></g><g transform="translate(371.3427734375 43.41813659667969) rotate(0 62.75054931640625 34.481414794921875)"><path d="M0.6025154422968626 0.022915111854672432 C29.933717366006764 -0.9825734635722996, 61.67896462357897 -0.4512715479267002, 126.05812732689083 0.3320918548852205 M0.9314148062840104 0.324114135466516 C26.960868086114886 -0.38139264504099524, 54.83879491483492 -0.3094557694592539, 125.50994479004294 -0.987144329585135 M124.09370748512447 -0.1780900489538908 C125.53056513528219 19.012724457617555, 127.11508791903844 35.13937766352982, 125.95524702779949 67.16000400669873 M125.47760927025229 0.1449798559769988 C126.08203220828247 19.590566796550462, 125.02116033895683 40.2654237185082, 125.79325416032225 69.60229801293463 M125.31084976904094 69.4599264729768 C89.97228860454123 66.47528345942544, 56.99149835984133 68.48059584260034, -0.2906405497342348 67.45285336859524 M124.6701212162152 68.85195302125067 C88.11808359067237 68.54118404892726, 50.48269578354994 68.52238644269748, 0.12269180361181498 69.41888173576444 M-0.9348394442349672 67.3280169237405 C2.126615523334635 48.331463252280045, -1.0915464768446559 27.102413319222897, -1.3055730033665895 -1.3144455086439848 M0.08039229456335306 69.57928045745939 C0.8588669586339125 53.314560405815016, -0.5460543644270769 39.18261375352366, 0.9947481984272599 -0.5097137177363038" stroke="#000000" stroke-width="1" fill="none"></path></g><g transform="translate(393.027099609375 63.51502990722656) rotate(0 45.5 12.5)"><text x="0" y="18" font-family="Virgil, Segoe UI Emoji" font-size="20px" fill="#000000" text-anchor="start" style="white-space: pre;" direction="ltr">autograd</text></g><g transform="translate(375.18267822265625 162.8456573486328) rotate(0 68.29458618164062 29.43798828125)"><path d="M1.7815777491778135 -1.460469437763095 C35.73303951987972 0.4974058854155299, 69.10678637053768 -0.7540242088265661, 137.807340009138 -1.8295668493956327 M0.34071111027151346 0.4660039162263274 C48.13518765073097 1.5793865863243064, 94.63583427328271 1.3130294326702079, 136.57854762021452 -0.8669725740328431 M134.8269442152232 -0.5149349104613066 C135.93618789048654 18.154657206334466, 136.08258697123986 40.80751233887731, 136.54794077388942 60.585925029590726 M137.5360115999356 0.8767925417050719 C136.1896229827456 19.75285496080096, 136.9683421397261 41.683596296828, 136.205390506424 59.341964206658304 M135.27672771923244 57.86056368239224 C100.85740673107549 61.36765226576187, 64.8158151588121 59.56520822498657, -0.07638956792652607 59.47514318116009 M136.65482073370367 59.788465223275125 C107.47195247796225 59.64234404856301, 77.33882119884434 60.08780368262864, -0.7536268597468734 58.553829721175134 M0.557380897924304 60.20930026657879 C0.5285533861912791 43.58389379344362, -0.33903602792844134 28.57419662511802, -0.9628067780286074 0.3540177810937166 M0.9765879744663835 59.75409202929586 C-0.9748293844272212 38.04060238456668, -0.6464218882133083 18.603654449737405, -0.8866087263450027 0.5101706003770232" stroke="#000000" stroke-width="1" fill="none"></path></g><g transform="translate(391.45758056640625 177.66465759277344) rotate(0 54 12.5)"><text x="0" y="18" font-family="Virgil, Segoe UI Emoji" font-size="20px" fill="#000000" text-anchor="start" style="white-space: pre;" direction="ltr">nn_modules</text></g><g transform="translate(324.8526611328125 262.96006774902344) rotate(0 72.38711547851562 31.640228271484375)"><path d="M-0.6442936826497316 -0.7003551851958036 C51.31010929747156 -0.8832840938853797, 100.86788866614266 2.424381194562954, 145.64275054447353 0.3090054262429476 M0.1770088905468583 0.3961555873975158 C44.2653618089648 -0.11494777165359371, 87.85459306142815 1.5750635210424053, 144.2859286600724 -0.8401765013113618 M145.7945721577853 0.8901015985757113 C142.6900912646488 18.230800787292875, 145.94569940607107 35.66371074566336, 144.48577402345836 63.17581604607403 M144.62198608461767 0.9877637242898345 C144.8273397680992 21.997825451488946, 144.48375114767492 44.458775812416086, 144.27502759639174 64.23503511305898 M144.32187603227794 63.655883776023984 C92.89908857690986 62.3754133779238, 46.359340596029085 62.80430593077643, 0.9037467669695616 64.04064493067563 M144.95534619037062 63.89388506766409 C109.00053781870585 64.50513985746514, 71.00931530061776 64.34526139491211, -0.09416413959115744 63.88327433820814 M-0.11444504745304585 62.903570936992764 C-0.3503258538148958 41.437360563565775, -0.48602554320317093 16.1840884988546, 1.8286145757883787 1.0541878808289766 M-0.5385785168036819 63.55687191244215 C0.22938982477939407 48.13951641978335, -1.3221398509427282 33.369521728821326, 0.4964992040768266 0.5130799924954772" stroke="#000000" stroke-width="1" fill="none"></path></g><g transform="translate(348.260009765625 282.98509216308594) rotate(0 45.5 12.5)"><text x="0" y="18" font-family="Virgil, Segoe UI Emoji" font-size="20px" fill="#000000" text-anchor="start" style="white-space: pre;" direction="ltr">datasets</text></g><g transform="translate(135.81515502929688 270.1235809326172) rotate(0 68.18098449707031 31.36004638671875)"><path d="M1.235588001087308 -0.9315995145589113 C40.226602062983886 -0.9364592624885435, 82.55665306640878 -1.4671002818328733, 137.41243861801922 -0.7807857561856508 M-0.6484022522345185 0.9748823875561357 C32.529814768060575 -1.2573341924016805, 64.2405854611462 0.1275441747839121, 136.1020467793569 -0.7052298253402114 M138.13060449250042 1.8041413258761168 C136.37931512158875 19.377811658675604, 138.62910763782028 36.994494610493646, 136.82962803728878 61.08976457826793 M136.78589063044637 -0.8786938851699233 C136.63804111279168 14.179554634883823, 135.99489772714296 26.890445404998605, 136.33720388170332 63.283350312151015 M134.43260531313717 62.40584705583751 C108.0711157008287 62.78178188404202, 83.65376556911104 64.19369533857464, 0.43779836781322956 63.68510548584163 M136.5816937899217 63.0557099217549 C108.78785830448993 61.6758640427801, 79.10586115981744 61.40169051482409, 0.41247843857854605 63.466801398433745 M-0.10615123622119427 62.693769140169024 C0.950949873216065 41.643013054246, 0.9354950444768987 18.473526423279026, 0.05884902365505695 0.701220853254199 M0.7842647945508361 61.96599053684622 C0.11106866507114665 41.00688968818446, -0.3703677961391042 20.79009173411498, -0.5289105558767915 0.9585572713986039" stroke="#000000" stroke-width="1" fill="none"></path></g><g transform="translate(143.81146240234375 289.8494415283203) rotate(0 60 12.5)"><text x="0" y="18" font-family="Virgil, Segoe UI Emoji" font-size="20px" fill="#000000" text-anchor="start" style="white-space: pre;" direction="ltr">dataloaders</text></g><g transform="translate(22.054901123046875 154.2785186767578) rotate(0 73.23857116699219 31.577362060546875)"><path d="M-0.026009095832705498 0.5149350594729185 C50.797764118400636 1.4366554817526533, 101.43670952806855 -0.02267930895398107, 147.6291530597955 0.709745628759265 M-0.6906254971399903 0.816627555526793 C44.33310130219614 1.5247250688305498, 89.91449774111967 0.3418916058769823, 146.02881290670484 0.6902157897129655 M146.92970113642514 1.465952618047595 C145.23702682443502 15.516466762872922, 145.0348063249195 29.328194210310553, 146.5988575089723 62.467935962602496 M146.0334041332826 0.3133139247074723 C146.35751036728104 18.77966967772163, 146.64406306470116 38.065446245249944, 147.2888446962461 62.839452856220305 M147.0200568307191 62.18039600364864 C109.46806399961118 63.413894473339646, 70.3246271530003 61.265888570572464, -0.11240537278354168 61.234974486753345 M146.95881830807775 64.1356695825234 C103.47053965997348 62.07639089274674, 61.343824694425365 63.01007926512032, -0.6119521046057343 63.61468269769102 M0.882081912830472 62.1307383608073 C-1.2124231329059234 40.25943209596025, 0.68766273354534 16.186814719663005, -0.5051238667219877 1.1658294629305601 M-0.32713321689516306 64.10721137467772 C-0.9870831919028029 45.24818633180939, -0.7606863630129561 27.479883372986485, 0.21073036547750235 0.16547196451574564" stroke="#000000" stroke-width="1" fill="none"></path></g><g transform="translate(64.9339599609375 173.26942443847656) rotate(0 22.5 12.5)"><text x="0" y="18" font-family="Virgil, Segoe UI Emoji" font-size="20px" fill="#000000" text-anchor="start" style="white-space: pre;" direction="ltr">JIT</text></g></svg>